<svg width="665" height="143" viewBox="0 0 665 143" fill="none" xmlns="http://www.w3.org/2000/svg">
<path d="M107.102 3.39453C104.289 5.50391 101.652 8.02344 99.1914 10.9531C101.574 12.4375 103.586 14.0781 105.227 15.875C106.867 17.6328 108.176 19.4297 109.152 21.2656C110.168 23.1016 110.891 24.918 111.32 26.7148C111.75 28.5117 111.965 30.1719 111.965 31.6953C111.965 35.5234 111.242 38.8633 109.797 41.7148C108.352 44.5273 106.438 46.8711 104.055 48.7461C101.711 50.6211 98.9961 52.0273 95.9102 52.9648C92.8633 53.8633 89.6992 54.3125 86.418 54.3125C82.7461 54.3125 79.1328 53.9023 75.5781 53.082C73.9375 56.5586 72.1602 60.0156 70.2461 63.4531C68.332 66.8906 66.2422 70.1914 63.9766 73.3555C61.75 76.4805 59.3086 79.4102 56.6523 82.1445C54.0352 84.8398 51.2031 87.1641 48.1562 89.1172C45.1484 91.1094 41.8867 92.6719 38.3711 93.8047C34.8555 94.9375 31.1055 95.5039 27.1211 95.5039C23.2539 95.5039 19.6797 94.8789 16.3984 93.6289C13.1172 92.3789 10.2852 90.5625 7.90234 88.1797C5.51953 85.7578 3.66406 82.8281 2.33594 79.3906C1.00781 75.9141 0.34375 71.9492 0.34375 67.4961C0.34375 61.7148 1.32031 56.1484 3.27344 50.7969C5.26562 45.4453 7.98047 40.4453 11.418 35.7969C14.8945 31.1484 18.9766 26.9297 23.6641 23.1406C28.3516 19.3516 33.4102 16.1094 38.8398 13.4141C44.2695 10.7188 49.9531 8.62891 55.8906 7.14453C61.8281 5.66016 67.7656 4.91797 73.7031 4.91797C78.3516 4.91797 82.4727 5.30859 86.0664 6.08984C89.6992 6.83203 92.9023 7.82813 95.6758 9.07812C97.2383 7.71094 98.8789 6.44141 100.598 5.26953C102.316 4.05859 104.172 2.98438 106.164 2.04688L107.102 3.39453ZM70.6562 48.2188C72.4531 44.4688 74.2305 40.875 75.9883 37.4375C77.7461 33.9609 79.5234 30.6797 81.3203 27.5938C83.1562 24.4688 85.0508 21.5586 87.0039 18.8633C88.957 16.1289 91.0664 13.6094 93.332 11.3047C90.7539 10.2891 87.9414 9.54688 84.8945 9.07812C81.8867 8.60938 78.6641 8.375 75.2266 8.375C70.5 8.375 65.8711 8.94141 61.3398 10.0742C56.8086 11.207 52.4336 12.7695 48.2148 14.7617C44.0352 16.7148 40.0312 19.0391 36.2031 21.7344C32.4141 24.4297 28.8789 27.3594 25.5977 30.5234C22.3555 33.6875 19.4062 37.0078 16.75 40.4844C14.1328 43.9219 11.8867 47.3984 10.0117 50.9141C8.17578 54.4297 6.75 57.9062 5.73438 61.3438C4.75781 64.7422 4.26953 67.9844 4.26953 71.0703C4.26953 74.0781 4.81641 76.8906 5.91016 79.5078C7.00391 82.0859 8.50781 84.332 10.4219 86.2461C12.375 88.1602 14.6797 89.6641 17.3359 90.7578C20.0312 91.8516 22.9805 92.3984 26.1836 92.3984C31.1445 92.3984 35.5977 91.4219 39.543 89.4688C43.4883 87.5156 47.1406 84.7422 50.5 81.1484C53.8594 77.5156 57.043 73.1602 60.0508 68.082C63.0586 63.0039 66.125 57.3398 69.25 51.0898C65.1875 49.4883 61.418 47.4375 57.9414 44.9375L58.8789 43.2969C60.7539 44.2344 62.6484 45.1328 64.5625 45.9922C66.5156 46.8125 68.5469 47.5547 70.6562 48.2188ZM105.812 28.3555C105.812 24.8789 105.051 21.9102 103.527 19.4492C102.043 16.9883 99.9531 14.9375 97.2578 13.2969C93.7031 17.9063 90.3047 23.2773 87.0625 29.4102C83.8594 35.5039 80.5391 42.3008 77.1016 49.8008C78.2344 49.9961 79.3672 50.1523 80.5 50.2695C81.6328 50.3477 82.7852 50.3867 83.957 50.3867C86.9258 50.3867 89.7188 49.8594 92.3359 48.8047C94.9922 47.75 97.3164 46.2656 99.3086 44.3516C101.301 42.3984 102.883 40.0742 104.055 37.3789C105.227 34.6836 105.812 31.6758 105.812 28.3555ZM112.961 66.0898C115.031 63.2773 117.18 60.6992 119.406 58.3555C121.633 55.9727 123.879 53.9219 126.145 52.2031C128.41 50.4844 130.637 49.1562 132.824 48.2188C135.051 47.2422 137.199 46.7539 139.27 46.7539C140.676 46.7539 141.828 46.9688 142.727 47.3984C143.664 47.8281 144.387 48.3945 144.895 49.0977C145.441 49.7617 145.812 50.5039 146.008 51.3242C146.242 52.1445 146.359 52.9648 146.359 53.7852C146.359 55.1914 146.066 56.7148 145.48 58.3555C144.895 59.957 144.152 61.6367 143.254 63.3945C142.395 65.1523 141.457 66.9492 140.441 68.7852C139.426 70.6211 138.469 72.418 137.57 74.1758C136.711 75.9336 135.988 77.6523 135.402 79.332C134.816 80.9727 134.523 82.5156 134.523 83.9609C134.523 84.8594 134.719 85.6992 135.109 86.4805C135.539 87.2227 136.281 87.5938 137.336 87.5938C138.586 87.5938 139.973 86.9688 141.496 85.7188C143.02 84.4297 144.562 82.8086 146.125 80.8555C147.727 78.8633 149.309 76.6562 150.871 74.2344C152.473 71.8125 153.957 69.4492 155.324 67.1445L157.434 68.7852C157.004 69.3711 156.418 70.3281 155.676 71.6562C154.934 72.9453 154.055 74.4102 153.039 76.0508C152.062 77.6523 150.949 79.3125 149.699 81.0312C148.488 82.75 147.18 84.332 145.773 85.7773C144.406 87.1836 142.961 88.3359 141.438 89.2344C139.914 90.1719 138.371 90.6406 136.809 90.6406C135.793 90.6406 134.777 90.5234 133.762 90.2891C132.746 90.0547 131.828 89.625 131.008 89C130.188 88.375 129.523 87.5352 129.016 86.4805C128.508 85.3867 128.254 84.0195 128.254 82.3789C128.254 80.4648 128.566 78.5312 129.191 76.5781C129.855 74.5859 130.656 72.6328 131.594 70.7188C132.57 68.7656 133.625 66.8906 134.758 65.0938C135.891 63.2578 136.926 61.5391 137.863 59.9375C138.84 58.3359 139.641 56.8906 140.266 55.6016C140.93 54.2734 141.262 53.1602 141.262 52.2617C141.262 50.6602 140.48 49.8594 138.918 49.8594C136.691 49.8594 134.328 50.6016 131.828 52.0859C129.367 53.5312 126.887 55.4258 124.387 57.7695C121.887 60.1133 119.426 62.75 117.004 65.6797C114.582 68.5703 112.316 71.4609 110.207 74.3516L101.301 91.1094L95.9688 89C100.93 78.1797 105.695 67.4961 110.266 56.9492C114.875 46.3633 119.602 35.9141 124.445 25.6016C125.188 24 126.047 22.2617 127.023 20.3867C128.039 18.5117 129.113 16.6367 130.246 14.7617C131.418 12.8867 132.668 11.0898 133.996 9.37109C135.324 7.65234 136.691 6.12891 138.098 4.80078C139.504 3.47266 140.949 2.41797 142.434 1.63672C143.957 0.816406 145.48 0.40625 147.004 0.40625C148.723 0.40625 150.051 0.894531 150.988 1.87109C151.965 2.80859 152.453 4.15625 152.453 5.91406C152.453 7.75 151.965 9.83984 150.988 12.1836C150.012 14.4883 148.703 16.9297 147.062 19.5078C145.422 22.0859 143.508 24.7422 141.32 27.4766C139.172 30.2109 136.887 32.9258 134.465 35.6211C132.082 38.3164 129.66 40.9336 127.199 43.4727C124.738 45.9727 122.375 48.2969 120.109 50.4453L112.961 66.0898ZM147.297 3.51172C145.539 3.51172 143.918 4.19531 142.434 5.5625C140.988 6.89063 139.406 9.09766 137.688 12.1836C135.969 15.2695 133.996 19.293 131.77 24.2539C129.543 29.2148 126.828 35.3086 123.625 42.5352C127.922 38.3555 131.672 34.3125 134.875 30.4062C138.117 26.4609 140.812 22.8672 142.961 19.625C145.109 16.3828 146.711 13.5703 147.766 11.1875C148.859 8.76563 149.406 6.96875 149.406 5.79688C149.406 5.09375 149.211 4.54688 148.82 4.15625C148.43 3.72656 147.922 3.51172 147.297 3.51172ZM188.43 73.0625C188.586 73.1016 188.742 73.1211 188.898 73.1211C189.055 73.1211 189.23 73.1211 189.426 73.1211C190.52 73.1211 191.516 73.0234 192.414 72.8281C193.312 72.5938 194.133 72.2422 194.875 71.7734C195.656 71.3047 196.398 70.6992 197.102 69.957C197.805 69.1758 198.488 68.2383 199.152 67.1445L201.262 68.7852C199.387 71.4414 197.453 73.2969 195.461 74.3516C193.469 75.4062 191.359 75.9336 189.133 75.9336C188.312 75.9336 187.59 75.8555 186.965 75.6992C185.285 78.5117 183.488 80.9141 181.574 82.9062C179.66 84.8594 177.707 86.4609 175.715 87.7109C173.723 88.9609 171.75 89.8594 169.797 90.4062C167.844 90.9922 166.027 91.2852 164.348 91.2852C162.629 91.2852 161.027 90.9727 159.543 90.3477C158.098 89.7617 156.848 88.9023 155.793 87.7695C154.738 86.6367 153.918 85.2891 153.332 83.7266C152.746 82.1641 152.453 80.4062 152.453 78.4531C152.453 76.5 152.766 74.5078 153.391 72.4766C154.016 70.4453 154.855 68.4336 155.91 66.4414C157.004 64.4492 158.273 62.5352 159.719 60.6992C161.164 58.8242 162.727 57.0859 164.406 55.4844C166.086 53.8828 167.824 52.4375 169.621 51.1484C171.418 49.8594 173.215 48.8047 175.012 47.9844L176.887 50.4453C174.816 51.9297 172.707 53.8047 170.559 56.0703C168.449 58.3359 166.516 60.8164 164.758 63.5117C163.039 66.207 161.613 69.0195 160.48 71.9492C159.387 74.8398 158.84 77.6523 158.84 80.3867C158.84 82.8477 159.387 84.7617 160.48 86.1289C161.574 87.457 163.234 88.1211 165.461 88.1211C167.18 88.1211 168.879 87.7695 170.559 87.0664C172.238 86.3633 173.879 85.4062 175.48 84.1953C177.082 82.9844 178.625 81.5586 180.109 79.918C181.594 78.2383 183 76.4609 184.328 74.5859C183.195 73.9219 182.199 73.043 181.34 71.9492C180.48 70.8164 179.758 69.5469 179.172 68.1406C178.586 66.6953 178.137 65.1523 177.824 63.5117C177.551 61.8711 177.414 60.1914 177.414 58.4727C177.414 56.7539 177.629 55.1328 178.059 53.6094C178.488 52.0859 179.074 50.7578 179.816 49.625C180.598 48.4531 181.496 47.5352 182.512 46.8711C183.527 46.207 184.641 45.875 185.852 45.875C186.945 45.875 187.922 46.168 188.781 46.7539C189.641 47.3008 190.363 48.082 190.949 49.0977C191.535 50.0742 191.984 51.2461 192.297 52.6133C192.609 53.9805 192.766 55.4453 192.766 57.0078C192.766 58.1797 192.668 59.4688 192.473 60.875C192.277 62.2812 191.984 63.707 191.594 65.1523C191.242 66.5586 190.793 67.9648 190.246 69.3711C189.738 70.7383 189.133 71.9688 188.43 73.0625ZM180.461 58.4727C180.461 59.6055 180.559 60.8359 180.754 62.1641C180.949 63.4922 181.262 64.7812 181.691 66.0312C182.121 67.2812 182.668 68.4531 183.332 69.5469C183.996 70.6016 184.816 71.4414 185.793 72.0664C186.496 70.6992 187.082 69.3125 187.551 67.9062C188.059 66.4609 188.469 65.0742 188.781 63.7461C189.133 62.418 189.367 61.1875 189.484 60.0547C189.641 58.8828 189.719 57.8672 189.719 57.0078C189.719 55.8359 189.621 54.7617 189.426 53.7852C189.23 52.8086 188.957 51.9688 188.605 51.2656C188.293 50.5234 187.883 49.957 187.375 49.5664C186.906 49.1367 186.379 48.9219 185.793 48.9219C185.012 48.9219 184.289 49.1953 183.625 49.7422C182.961 50.25 182.395 50.9531 181.926 51.8516C181.457 52.7109 181.086 53.7266 180.812 54.8984C180.578 56.0312 180.461 57.2227 180.461 58.4727ZM248.137 58.5898C248.137 60.2695 247.844 61.9883 247.258 63.7461C246.672 65.4648 245.93 67.2031 245.031 68.9609C244.133 70.6797 243.176 72.3789 242.16 74.0586C241.145 75.7383 240.188 77.3594 239.289 78.9219C238.391 80.4844 237.648 81.9883 237.062 83.4336C236.477 84.8398 236.184 86.1289 236.184 87.3008C236.184 88.1992 236.379 88.8047 236.77 89.1172C237.16 89.4297 237.59 89.5859 238.059 89.5859C239.543 89.5859 241.203 88.8633 243.039 87.418C244.875 85.9336 246.73 84.0781 248.605 81.8516C250.52 79.625 252.414 77.2031 254.289 74.5859C256.164 71.9688 257.863 69.4883 259.387 67.1445L261.496 68.7852C261.184 69.2539 260.617 70.1914 259.797 71.5977C258.977 72.9648 257.961 74.5469 256.75 76.3438C255.539 78.1016 254.172 79.957 252.648 81.9102C251.164 83.8242 249.562 85.6016 247.844 87.2422C246.125 88.8438 244.348 90.1719 242.512 91.2266C240.715 92.2812 238.898 92.8086 237.062 92.8086C236.008 92.8086 235.051 92.6328 234.191 92.2812C233.332 91.9297 232.59 91.4414 231.965 90.8164C231.379 90.1914 230.91 89.4688 230.559 88.6484C230.207 87.7891 230.031 86.8906 230.031 85.9531C230.031 84.4297 230.363 82.7891 231.027 81.0312C231.73 79.2344 232.59 77.3984 233.605 75.5234C234.621 73.6484 235.734 71.7734 236.945 69.8984C238.156 67.9844 239.27 66.168 240.285 64.4492C241.301 62.7305 242.141 61.1484 242.805 59.7031C243.508 58.2188 243.859 56.9492 243.859 55.8945C243.859 54.6836 243.527 53.668 242.863 52.8477C242.238 52.0273 241.34 51.6172 240.168 51.6172C238.918 51.6172 237.473 52.1445 235.832 53.1992C234.191 54.2148 232.355 55.7188 230.324 57.7109C228.293 59.7031 226.066 62.1641 223.645 65.0938C221.262 67.9844 218.664 71.2852 215.852 74.9961C214.25 77.1445 212.688 79.2148 211.164 81.207C210.5 82.0664 209.836 82.9453 209.172 83.8438C208.508 84.7422 207.844 85.6406 207.18 86.5391C206.516 87.3984 205.891 88.2188 205.305 89C204.719 89.8203 204.191 90.5234 203.723 91.1094L198.566 89L205.422 79.5664C206.398 78.2383 207.395 76.8125 208.41 75.2891C209.426 73.7656 210.422 72.2031 211.398 70.6016C212.414 68.9609 213.371 67.3203 214.27 65.6797C215.168 64.0391 216.008 62.4375 216.789 60.875C217.922 58.5312 218.703 56.5977 219.133 55.0742C219.562 53.5117 219.777 52.2617 219.777 51.3242C219.777 50.2695 219.582 49.5859 219.191 49.2734C218.801 48.9219 218.254 48.7461 217.551 48.7461C216.809 48.7461 215.949 49.1367 214.973 49.918C214.035 50.6602 213.059 51.6367 212.043 52.8477C211.027 54.0195 209.992 55.3672 208.938 56.8906C207.922 58.375 206.945 59.8594 206.008 61.3438C205.07 62.8281 204.191 64.2344 203.371 65.5625C202.551 66.8906 201.867 67.9648 201.32 68.7852L199.211 67.1445C201.203 64.0195 203 61.168 204.602 58.5898C206.242 55.9727 207.805 53.7266 209.289 51.8516C210.812 49.9766 212.277 48.5312 213.684 47.5156C215.129 46.4609 216.652 45.9336 218.254 45.9336C219.113 45.9336 219.934 46.1094 220.715 46.4609C221.535 46.8125 222.238 47.3398 222.824 48.043C223.449 48.707 223.938 49.5273 224.289 50.5039C224.641 51.4805 224.816 52.6133 224.816 53.9023C224.816 54.918 224.699 55.9727 224.465 57.0664C226.184 55.3867 227.785 54 229.27 52.9062C230.754 51.8125 232.121 50.9531 233.371 50.3281C234.621 49.6641 235.773 49.1953 236.828 48.9219C237.883 48.6484 238.84 48.5117 239.699 48.5117C240.441 48.5117 241.301 48.6484 242.277 48.9219C243.254 49.1953 244.172 49.7031 245.031 50.4453C245.891 51.1875 246.613 52.2227 247.199 53.5508C247.824 54.8398 248.137 56.5195 248.137 58.5898ZM263.898 75.6406C263.82 76.1094 263.762 76.5781 263.723 77.0469C263.684 77.5156 263.664 77.9844 263.664 78.4531C263.664 79.8594 263.859 81.207 264.25 82.4961C264.68 83.7461 265.285 84.8594 266.066 85.8359C266.887 86.7734 267.883 87.5156 269.055 88.0625C270.266 88.6094 271.633 88.8828 273.156 88.8828C278.273 88.8828 283.215 87.1445 287.98 83.668C292.746 80.1914 297.492 74.6836 302.219 67.1445L304.211 68.9023C301.633 73.1992 299.016 76.832 296.359 79.8008C293.703 82.7305 291.047 85.1133 288.391 86.9492C285.773 88.7852 283.195 90.1133 280.656 90.9336C278.117 91.7539 275.695 92.1641 273.391 92.1641C271.711 92.1641 269.934 91.9297 268.059 91.4609C266.184 90.9922 264.445 90.2109 262.844 89.1172C261.281 88.0234 259.992 86.5586 258.977 84.7227C257.922 82.8867 257.395 80.6016 257.395 77.8672C257.395 74.9375 257.902 72.125 258.918 69.4297C259.895 66.6953 261.184 64.1562 262.785 61.8125C264.387 59.4688 266.223 57.3398 268.293 55.4258C270.363 53.4727 272.453 51.8125 274.562 50.4453C276.711 49.0781 278.801 48.0234 280.832 47.2812C282.863 46.5 284.66 46.1094 286.223 46.1094C287.238 46.1094 288.273 46.2656 289.328 46.5781C290.383 46.8906 291.32 47.3789 292.141 48.043C293 48.707 293.684 49.5859 294.191 50.6797C294.738 51.7734 295.012 53.082 295.012 54.6055C295.012 56.6758 294.523 58.6289 293.547 60.4648C292.609 62.2617 291.34 63.9414 289.738 65.5039C288.137 67.0273 286.281 68.4141 284.172 69.6641C282.062 70.875 279.855 71.9102 277.551 72.7695C275.246 73.6289 272.922 74.3125 270.578 74.8203C268.234 75.3281 266.008 75.6016 263.898 75.6406ZM264.367 73.1211C266.984 72.8477 269.445 72.3008 271.75 71.4805C274.055 70.6602 276.164 69.6641 278.078 68.4922C279.992 67.2812 281.691 65.9727 283.176 64.5664C284.699 63.1602 285.969 61.7344 286.984 60.2891C288 58.8438 288.781 57.457 289.328 56.1289C289.875 54.8008 290.148 53.6094 290.148 52.5547C290.148 51.5 289.855 50.6602 289.27 50.0352C288.723 49.4102 288.059 49.0977 287.277 49.0977C285.559 49.0977 283.625 49.7227 281.477 50.9727C279.328 52.1836 277.18 53.8828 275.031 56.0703C272.883 58.2188 270.852 60.7578 268.938 63.6875C267.062 66.6172 265.539 69.7617 264.367 73.1211ZM400.715 4.74219C400.09 5.52344 399.484 6.28516 398.898 7.02734C398.352 7.73047 397.805 8.47266 397.258 9.25391C401.203 10.6992 404.387 12.4961 406.809 14.6445C409.23 16.7539 411.105 18.9805 412.434 21.3242C413.762 23.6289 414.641 25.9141 415.07 28.1797C415.539 30.4062 415.773 32.3398 415.773 33.9805C415.773 36.2852 415.383 38.4922 414.602 40.6016C413.859 42.6719 412.844 44.5664 411.555 46.2852C410.305 48.0039 408.84 49.5078 407.16 50.7969C405.48 52.0469 403.723 53.0039 401.887 53.668C405.676 56.793 408.488 60.2695 410.324 64.0977C412.199 67.9258 413.137 71.793 413.137 75.6992C413.137 78.9805 412.453 82.0859 411.086 85.0156C409.758 87.9453 407.941 90.5039 405.637 92.6914C403.332 94.8789 400.598 96.6172 397.434 97.9062C394.309 99.1953 390.969 99.8398 387.414 99.8398C384.328 99.8398 381.477 99.332 378.859 98.3164C376.281 97.3398 373.957 95.9922 371.887 94.2734C369.855 92.5547 368.078 90.5234 366.555 88.1797C365.07 85.8359 363.898 83.3359 363.039 80.6797L365.969 79.8008C367.414 84.4883 369.797 88.1016 373.117 90.6406C376.438 93.2188 380.441 94.5078 385.129 94.5078C388.02 94.5078 390.773 93.9609 393.391 92.8672C396.047 91.8125 398.371 90.3672 400.363 88.5312C402.355 86.6562 403.938 84.4688 405.109 81.9688C406.281 79.4297 406.867 76.6953 406.867 73.7656C406.867 71.7734 406.594 69.8789 406.047 68.082C405.5 66.2852 404.777 64.5859 403.879 62.9844C402.98 61.3828 401.965 59.918 400.832 58.5898C399.738 57.2227 398.605 56.0117 397.434 54.957C396.379 55.1523 395.324 55.3086 394.27 55.4258C393.215 55.543 392.18 55.6016 391.164 55.6016C389.758 55.6016 388.312 55.5039 386.828 55.3086C385.383 55.0742 384.055 54.7422 382.844 54.3125C381.672 53.8828 380.695 53.3164 379.914 52.6133C379.172 51.9102 378.801 51.0508 378.801 50.0352C378.801 49.8008 378.859 49.4688 378.977 49.0391C379.094 48.5703 379.328 48.1211 379.68 47.6914C380.07 47.2617 380.637 46.8906 381.379 46.5781C382.121 46.2266 383.137 46.0508 384.426 46.0508C385.637 46.0508 386.848 46.1875 388.059 46.4609C389.309 46.7344 390.5 47.1055 391.633 47.5742C392.766 48.0039 393.859 48.5117 394.914 49.0977C395.969 49.6445 396.926 50.2109 397.785 50.7969C399.191 50.1719 400.598 49.332 402.004 48.2773C403.449 47.1836 404.758 45.8555 405.93 44.293C407.102 42.7305 408.059 40.9336 408.801 38.9023C409.543 36.8711 409.914 34.5859 409.914 32.0469C409.914 27.5938 408.684 23.5898 406.223 20.0352C403.762 16.4805 400.109 13.7656 395.266 11.8906C392.922 15.1719 390.734 18.4336 388.703 21.6758C386.672 24.918 384.777 28.1602 383.02 31.4023C381.262 34.6445 379.602 37.8867 378.039 41.1289C376.516 44.3711 375.051 47.6523 373.645 50.9727C370.402 58.5508 367.238 65.0352 364.152 70.4258C361.066 75.7773 357.766 80.1523 354.25 83.5508C350.773 86.9492 346.965 89.4297 342.824 90.9922C338.723 92.5938 334.016 93.3945 328.703 93.3945C324.602 93.3945 321.066 92.7109 318.098 91.3438C315.129 90.0156 312.688 88.1797 310.773 85.8359C308.859 83.4922 307.434 80.7773 306.496 77.6914C305.598 74.5664 305.148 71.2461 305.148 67.7305C305.148 63.8242 305.773 59.8008 307.023 55.6602C308.273 51.4805 310.129 47.3203 312.59 43.1797C314.152 40.5625 316.086 37.8477 318.391 35.0352C320.695 32.1836 323.332 29.3906 326.301 26.6562C329.27 23.8828 332.57 21.2656 336.203 18.8047C339.875 16.3047 343.82 14.1367 348.039 12.3008C352.297 10.4258 356.828 8.94141 361.633 7.84766C366.477 6.71484 371.574 6.14844 376.926 6.14844C380.207 6.14844 383.195 6.32422 385.891 6.67578C388.625 6.98828 391.145 7.45703 393.449 8.08203C394.348 7.18359 395.246 6.28516 396.145 5.38672C397.082 4.48828 398.039 3.58984 399.016 2.69141L400.715 4.74219ZM377.395 29.0586C379.465 25.6211 381.613 22.3984 383.84 19.3906C386.105 16.3438 388.527 13.4141 391.105 10.6016C389.621 10.25 388.039 9.97656 386.359 9.78125C384.719 9.58594 382.98 9.48828 381.145 9.48828C375.246 9.48828 369.426 10.3086 363.684 11.9492C357.98 13.5508 352.531 15.7969 347.336 18.6875C342.18 21.5781 337.395 25.0156 332.98 29C328.566 32.9844 324.738 37.3203 321.496 42.0078C318.293 46.6562 315.773 51.5781 313.938 56.7734C312.141 61.9688 311.242 67.2422 311.242 72.5938C311.242 75.25 311.594 77.6719 312.297 79.8594C313.039 82.0078 314.133 83.8633 315.578 85.4258C317.023 86.9492 318.801 88.1406 320.91 89C323.059 89.8203 325.52 90.2305 328.293 90.2305C332.941 90.2305 337.004 89.3711 340.48 87.6523C343.957 85.8945 347.043 83.5117 349.738 80.5039C352.473 77.4961 354.934 74 357.121 70.0156C359.309 65.9922 361.438 61.7148 363.508 57.1836C365.617 52.6523 367.766 47.9844 369.953 43.1797C372.141 38.375 374.621 33.668 377.395 29.0586ZM393.801 51.9688C393.215 51.5391 392.512 51.1484 391.691 50.7969C390.91 50.4062 390.09 50.0938 389.23 49.8594C388.371 49.5859 387.512 49.3711 386.652 49.2148C385.793 49.0586 385.051 48.9805 384.426 48.9805C383.332 48.9805 382.629 49.1172 382.316 49.3906C382.043 49.625 381.906 49.8398 381.906 50.0352C381.906 50.3867 382.16 50.6992 382.668 50.9727C383.215 51.2461 383.879 51.5 384.66 51.7344C385.48 51.9297 386.379 52.0859 387.355 52.2031C388.332 52.3203 389.289 52.3789 390.227 52.3789C390.656 52.3789 391.145 52.3594 391.691 52.3203C392.238 52.2812 392.941 52.1641 393.801 51.9688ZM469.973 50.0352C469.465 51.0508 468.742 52.3789 467.805 54.0195C466.906 55.6602 465.93 57.4766 464.875 59.4688C463.82 61.4219 462.746 63.4727 461.652 65.6211C460.598 67.7695 459.621 69.8789 458.723 71.9492C457.863 73.9805 457.141 75.9141 456.555 77.75C456.008 79.5469 455.734 81.0703 455.734 82.3203C455.734 83.5703 455.969 84.3906 456.438 84.7812C456.945 85.1328 457.59 85.3086 458.371 85.3086C459.504 85.3086 460.656 84.9766 461.828 84.3125C463.039 83.6484 464.211 82.7891 465.344 81.7344C466.516 80.6797 467.648 79.4883 468.742 78.1602C469.836 76.832 470.852 75.5039 471.789 74.1758C472.766 72.8086 473.645 71.5195 474.426 70.3086C475.207 69.0586 475.871 68.0039 476.418 67.1445L478.527 68.7852C477.863 70.0352 477.082 71.3828 476.184 72.8281C475.285 74.2734 474.289 75.7383 473.195 77.2227C472.141 78.668 470.988 80.0742 469.738 81.4414C468.488 82.8086 467.16 84.0195 465.754 85.0742C464.387 86.1289 462.941 86.9688 461.418 87.5938C459.895 88.2188 458.332 88.5312 456.73 88.5312C454.387 88.5312 452.668 87.8281 451.574 86.4219C450.48 85.0156 449.934 83.1992 449.934 80.9727C449.934 80.8164 449.934 80.4844 449.934 79.9766C449.973 79.4297 450.031 79 450.109 78.6875C448.156 81.1484 446.281 83.1797 444.484 84.7812C442.727 86.3828 441.008 87.6523 439.328 88.5898C437.688 89.5273 436.086 90.1719 434.523 90.5234C433 90.9141 431.535 91.1094 430.129 91.1094C428.645 91.1094 427.238 90.8555 425.91 90.3477C424.621 89.8789 423.488 89.1758 422.512 88.2383C421.496 87.3008 420.715 86.1484 420.168 84.7812C419.582 83.4141 419.289 81.832 419.289 80.0352C419.289 77.8086 419.797 75.2695 420.812 72.418C421.789 69.5273 423.547 66.4219 426.086 63.1016C428.234 60.25 430.461 57.8477 432.766 55.8945C435.109 53.9414 437.395 52.3789 439.621 51.207C441.887 49.9961 444.035 49.1367 446.066 48.6289C448.098 48.1211 449.914 47.8672 451.516 47.8672C455.109 47.8672 457.824 48.4727 459.66 49.6836C461.496 50.8555 462.609 52.6719 463 55.1328C463.781 54.1562 464.602 53.1797 465.461 52.2031C466.32 51.2266 467.199 50.2305 468.098 49.2148L469.973 50.0352ZM451.984 72.3008C452.492 71.4805 453.117 70.4453 453.859 69.1953C454.602 67.9062 455.383 66.5977 456.203 65.2695C457.023 63.9023 457.824 62.5938 458.605 61.3438C459.387 60.0938 460.07 59.0391 460.656 58.1797C460.656 57.8281 460.598 57.2617 460.48 56.4805C460.402 55.6992 460.148 54.918 459.719 54.1367C459.289 53.3164 458.605 52.6133 457.668 52.0273C456.73 51.4414 455.422 51.1484 453.742 51.1484C452.531 51.1484 451.164 51.3438 449.641 51.7344C448.156 52.0859 446.555 52.7109 444.836 53.6094C443.156 54.4688 441.418 55.6211 439.621 57.0664C437.824 58.5117 436.027 60.3086 434.23 62.457C431.535 65.6992 429.445 68.9609 427.961 72.2422C426.516 75.4844 425.793 78.4141 425.793 81.0312C425.793 83.2578 426.301 84.9766 427.316 86.1875C428.332 87.3984 429.777 88.0039 431.652 88.0039C433.801 88.0039 435.812 87.5352 437.688 86.5977C439.562 85.6211 441.32 84.3711 442.961 82.8477C444.602 81.3242 446.164 79.6445 447.648 77.8086C449.133 75.9336 450.578 74.0977 451.984 72.3008ZM492.766 87.7109C493 88.1406 493.352 88.8047 493.82 89.7031C494.289 90.6406 494.641 91.7344 494.875 92.9844C497.297 91.4609 499.66 89.8398 501.965 88.1211C504.309 86.3633 506.574 84.4492 508.762 82.3789C510.949 80.2695 513.059 77.9648 515.09 75.4648C517.16 72.9648 519.133 70.1914 521.008 67.1445L523.117 68.7852C521.125 72.0664 519.055 75.0352 516.906 77.6914C514.758 80.3086 512.512 82.7109 510.168 84.8984C507.863 87.0859 505.441 89.0977 502.902 90.9336C500.402 92.8086 497.785 94.5859 495.051 96.2656C494.895 99.8984 494.094 103.551 492.648 107.223C491.203 110.934 489.348 114.508 487.082 117.945C484.855 121.383 482.316 124.586 479.465 127.555C476.652 130.562 473.801 133.18 470.91 135.406C467.98 137.633 465.148 139.391 462.414 140.68C459.641 141.969 457.199 142.613 455.09 142.613C453.566 142.613 452.297 142.34 451.281 141.793C450.227 141.285 449.387 140.621 448.762 139.801C448.137 138.98 447.688 138.082 447.414 137.105C447.141 136.129 447.004 135.191 447.004 134.293C447.004 132.027 447.707 129.586 449.113 126.969C450.52 124.391 452.609 121.695 455.383 118.883C458.117 116.109 461.516 113.277 465.578 110.387C469.641 107.496 474.309 104.625 479.582 101.773C481.418 100.758 483.234 99.7617 485.031 98.7852C486.828 97.8086 488.625 96.793 490.422 95.7383C490.422 95.543 490.422 95.3281 490.422 95.0938C490.461 94.8984 490.48 94.7031 490.48 94.5078C490.48 93.3359 490.383 92.3203 490.188 91.4609C490.031 90.6406 489.797 89.9375 489.484 89.3516C487.336 90.2109 485.52 90.6406 484.035 90.6406C482.59 90.6406 481.379 90.2891 480.402 89.5859C479.426 88.9219 478.938 88.0039 478.938 86.832C478.938 85.582 479.484 84.625 480.578 83.9609C481.672 83.2578 482.98 82.9062 484.504 82.9062C486.535 82.9062 488.43 83.5703 490.188 84.8984C491.984 83.4922 493.723 81.6953 495.402 79.5078C497.082 77.2812 498.566 74.8984 499.855 72.3594C501.145 69.7812 502.18 67.1641 502.961 64.5078C503.742 61.8125 504.133 59.293 504.133 56.9492C504.133 55.6602 503.957 54.5664 503.605 53.668C503.293 52.7695 502.863 52.0469 502.316 51.5C501.77 50.9141 501.145 50.4844 500.441 50.2109C499.738 49.9375 498.996 49.8008 498.215 49.8008C496.613 49.8008 495.07 50.1914 493.586 50.9727C492.141 51.7539 490.773 52.7695 489.484 54.0195C488.195 55.2305 486.984 56.5781 485.852 58.0625C484.758 59.5469 483.742 60.9922 482.805 62.3984C481.906 63.8047 481.105 65.0938 480.402 66.2656C479.699 67.3984 479.113 68.2383 478.645 68.7852L476.477 67.1445C476.945 66.5195 477.531 65.6016 478.234 64.3906C478.977 63.1406 479.836 61.7539 480.812 60.2305C481.789 58.707 482.883 57.1445 484.094 55.543C485.305 53.9414 486.633 52.4961 488.078 51.207C489.523 49.8789 491.086 48.8047 492.766 47.9844C494.484 47.125 496.301 46.6953 498.215 46.6953C500.051 46.6953 501.691 47.0078 503.137 47.6328C504.621 48.2188 505.871 49.0586 506.887 50.1523C507.941 51.207 508.742 52.4961 509.289 54.0195C509.875 55.543 510.168 57.2422 510.168 59.1172C510.168 61.8516 509.699 64.6055 508.762 67.3789C507.824 70.1523 506.555 72.8086 504.953 75.3477C503.391 77.8477 501.555 80.1719 499.445 82.3203C497.336 84.4297 495.109 86.2266 492.766 87.7109ZM477.883 119.703C479.094 118.18 480.305 116.578 481.516 114.898C482.727 113.219 483.859 111.5 484.914 109.742C485.969 108.023 486.906 106.285 487.727 104.527C488.586 102.809 489.25 101.129 489.719 99.4883L481.105 104.352C476.105 107.125 471.867 109.723 468.391 112.145C464.875 114.605 461.984 116.871 459.719 118.941C457.414 121.051 455.617 122.945 454.328 124.625C453.039 126.305 452.082 127.789 451.457 129.078C450.793 130.367 450.402 131.422 450.285 132.242C450.129 133.102 450.051 133.727 450.051 134.117C450.051 134.664 450.109 135.211 450.227 135.758C450.344 136.344 450.578 136.852 450.93 137.281C451.242 137.711 451.672 138.062 452.219 138.336C452.766 138.609 453.488 138.746 454.387 138.746C455.363 138.746 456.574 138.473 458.02 137.926C459.426 137.379 461.086 136.383 463 134.938C464.914 133.531 467.102 131.598 469.562 129.137C472.023 126.676 474.797 123.531 477.883 119.703ZM487.785 86.6562C487.238 86.3047 486.652 86.0508 486.027 85.8945C485.402 85.6992 484.875 85.6016 484.445 85.6016C482.766 85.6016 481.926 85.9727 481.926 86.7148C481.926 87.457 482.648 87.8281 484.094 87.8281C484.484 87.8281 485.051 87.75 485.793 87.5938C486.535 87.3984 487.199 87.0859 487.785 86.6562ZM567.59 50.0352C567.082 51.0508 566.359 52.3789 565.422 54.0195C564.523 55.6602 563.547 57.4766 562.492 59.4688C561.438 61.4219 560.363 63.4727 559.27 65.6211C558.215 67.7695 557.238 69.8789 556.34 71.9492C555.48 73.9805 554.758 75.9141 554.172 77.75C553.625 79.5469 553.352 81.0703 553.352 82.3203C553.352 83.5703 553.586 84.3906 554.055 84.7812C554.562 85.1328 555.207 85.3086 555.988 85.3086C557.121 85.3086 558.273 84.9766 559.445 84.3125C560.656 83.6484 561.828 82.7891 562.961 81.7344C564.133 80.6797 565.266 79.4883 566.359 78.1602C567.453 76.832 568.469 75.5039 569.406 74.1758C570.383 72.8086 571.262 71.5195 572.043 70.3086C572.824 69.0586 573.488 68.0039 574.035 67.1445L576.145 68.7852C575.48 70.0352 574.699 71.3828 573.801 72.8281C572.902 74.2734 571.906 75.7383 570.812 77.2227C569.758 78.668 568.605 80.0742 567.355 81.4414C566.105 82.8086 564.777 84.0195 563.371 85.0742C562.004 86.1289 560.559 86.9688 559.035 87.5938C557.512 88.2188 555.949 88.5312 554.348 88.5312C552.004 88.5312 550.285 87.8281 549.191 86.4219C548.098 85.0156 547.551 83.1992 547.551 80.9727C547.551 80.8164 547.551 80.4844 547.551 79.9766C547.59 79.4297 547.648 79 547.727 78.6875C545.773 81.1484 543.898 83.1797 542.102 84.7812C540.344 86.3828 538.625 87.6523 536.945 88.5898C535.305 89.5273 533.703 90.1719 532.141 90.5234C530.617 90.9141 529.152 91.1094 527.746 91.1094C526.262 91.1094 524.855 90.8555 523.527 90.3477C522.238 89.8789 521.105 89.1758 520.129 88.2383C519.113 87.3008 518.332 86.1484 517.785 84.7812C517.199 83.4141 516.906 81.832 516.906 80.0352C516.906 77.8086 517.414 75.2695 518.43 72.418C519.406 69.5273 521.164 66.4219 523.703 63.1016C525.852 60.25 528.078 57.8477 530.383 55.8945C532.727 53.9414 535.012 52.3789 537.238 51.207C539.504 49.9961 541.652 49.1367 543.684 48.6289C545.715 48.1211 547.531 47.8672 549.133 47.8672C552.727 47.8672 555.441 48.4727 557.277 49.6836C559.113 50.8555 560.227 52.6719 560.617 55.1328C561.398 54.1562 562.219 53.1797 563.078 52.2031C563.938 51.2266 564.816 50.2305 565.715 49.2148L567.59 50.0352ZM549.602 72.3008C550.109 71.4805 550.734 70.4453 551.477 69.1953C552.219 67.9062 553 66.5977 553.82 65.2695C554.641 63.9023 555.441 62.5938 556.223 61.3438C557.004 60.0938 557.688 59.0391 558.273 58.1797C558.273 57.8281 558.215 57.2617 558.098 56.4805C558.02 55.6992 557.766 54.918 557.336 54.1367C556.906 53.3164 556.223 52.6133 555.285 52.0273C554.348 51.4414 553.039 51.1484 551.359 51.1484C550.148 51.1484 548.781 51.3438 547.258 51.7344C545.773 52.0859 544.172 52.7109 542.453 53.6094C540.773 54.4688 539.035 55.6211 537.238 57.0664C535.441 58.5117 533.645 60.3086 531.848 62.457C529.152 65.6992 527.062 68.9609 525.578 72.2422C524.133 75.4844 523.41 78.4141 523.41 81.0312C523.41 83.2578 523.918 84.9766 524.934 86.1875C525.949 87.3984 527.395 88.0039 529.27 88.0039C531.418 88.0039 533.43 87.5352 535.305 86.5977C537.18 85.6211 538.938 84.3711 540.578 82.8477C542.219 81.3242 543.781 79.6445 545.266 77.8086C546.75 75.9336 548.195 74.0977 549.602 72.3008ZM620.676 50.0352C620.168 51.0508 619.445 52.3789 618.508 54.0195C617.609 55.6602 616.633 57.4766 615.578 59.4688C614.523 61.4219 613.449 63.4727 612.355 65.6211C611.301 67.7695 610.324 69.8789 609.426 71.9492C608.566 73.9805 607.844 75.9141 607.258 77.75C606.711 79.5469 606.438 81.0703 606.438 82.3203C606.438 83.5703 606.672 84.3906 607.141 84.7812C607.648 85.1328 608.293 85.3086 609.074 85.3086C610.207 85.3086 611.359 84.9766 612.531 84.3125C613.742 83.6484 614.914 82.7891 616.047 81.7344C617.219 80.6797 618.352 79.4883 619.445 78.1602C620.539 76.832 621.555 75.5039 622.492 74.1758C623.469 72.8086 624.348 71.5195 625.129 70.3086C625.91 69.0586 626.574 68.0039 627.121 67.1445L629.23 68.7852C628.566 70.0352 627.785 71.3828 626.887 72.8281C625.988 74.2734 624.992 75.7383 623.898 77.2227C622.844 78.668 621.691 80.0742 620.441 81.4414C619.191 82.8086 617.863 84.0195 616.457 85.0742C615.09 86.1289 613.645 86.9688 612.121 87.5938C610.598 88.2188 609.035 88.5312 607.434 88.5312C605.09 88.5312 603.371 87.8281 602.277 86.4219C601.184 85.0156 600.637 83.1992 600.637 80.9727C600.637 80.8164 600.637 80.4844 600.637 79.9766C600.676 79.4297 600.734 79 600.812 78.6875C598.859 81.1484 596.984 83.1797 595.188 84.7812C593.43 86.3828 591.711 87.6523 590.031 88.5898C588.391 89.5273 586.789 90.1719 585.227 90.5234C583.703 90.9141 582.238 91.1094 580.832 91.1094C579.348 91.1094 577.941 90.8555 576.613 90.3477C575.324 89.8789 574.191 89.1758 573.215 88.2383C572.199 87.3008 571.418 86.1484 570.871 84.7812C570.285 83.4141 569.992 81.832 569.992 80.0352C569.992 77.8086 570.5 75.2695 571.516 72.418C572.492 69.5273 574.25 66.4219 576.789 63.1016C578.938 60.25 581.164 57.8477 583.469 55.8945C585.812 53.9414 588.098 52.3789 590.324 51.207C592.59 49.9961 594.738 49.1367 596.77 48.6289C598.801 48.1211 600.617 47.8672 602.219 47.8672C605.812 47.8672 608.527 48.4727 610.363 49.6836C612.199 50.8555 613.312 52.6719 613.703 55.1328C614.484 54.1562 615.305 53.1797 616.164 52.2031C617.023 51.2266 617.902 50.2305 618.801 49.2148L620.676 50.0352ZM602.688 72.3008C603.195 71.4805 603.82 70.4453 604.562 69.1953C605.305 67.9062 606.086 66.5977 606.906 65.2695C607.727 63.9023 608.527 62.5938 609.309 61.3438C610.09 60.0938 610.773 59.0391 611.359 58.1797C611.359 57.8281 611.301 57.2617 611.184 56.4805C611.105 55.6992 610.852 54.918 610.422 54.1367C609.992 53.3164 609.309 52.6133 608.371 52.0273C607.434 51.4414 606.125 51.1484 604.445 51.1484C603.234 51.1484 601.867 51.3438 600.344 51.7344C598.859 52.0859 597.258 52.7109 595.539 53.6094C593.859 54.4688 592.121 55.6211 590.324 57.0664C588.527 58.5117 586.73 60.3086 584.934 62.457C582.238 65.6992 580.148 68.9609 578.664 72.2422C577.219 75.4844 576.496 78.4141 576.496 81.0312C576.496 83.2578 577.004 84.9766 578.02 86.1875C579.035 87.3984 580.48 88.0039 582.355 88.0039C584.504 88.0039 586.516 87.5352 588.391 86.5977C590.266 85.6211 592.023 84.3711 593.664 82.8477C595.305 81.3242 596.867 79.6445 598.352 77.8086C599.836 75.9336 601.281 74.0977 602.688 72.3008ZM664.152 68.7852C663.566 69.6445 662.863 70.8164 662.043 72.3008C661.262 73.7461 660.344 75.3281 659.289 77.0469C658.234 78.7266 657.062 80.4453 655.773 82.2031C654.523 83.9609 653.137 85.543 651.613 86.9492C650.129 88.3555 648.508 89.5078 646.75 90.4062C644.992 91.3047 643.117 91.7539 641.125 91.7539C640.031 91.7539 638.996 91.5781 638.02 91.2266C637.043 90.9141 636.184 90.4062 635.441 89.7031C634.699 89 634.113 88.1406 633.684 87.125C633.254 86.0703 633.039 84.8398 633.039 83.4336C633.039 81.5195 633.41 79.5273 634.152 77.457C634.934 75.3477 635.832 73.3164 636.848 71.3633C637.863 69.4102 638.879 67.6328 639.895 66.0312C640.91 64.3906 641.652 63.082 642.121 62.1055C642.59 61.1289 642.824 60.2891 642.824 59.5859C642.824 59.0781 642.648 58.6289 642.297 58.2383C641.984 57.8477 641.574 57.4766 641.066 57.125C640.598 56.7344 640.09 56.3438 639.543 55.9531C639.035 55.5234 638.605 55.0156 638.254 54.4297C637.277 55.9922 636.281 57.5742 635.266 59.1758C634.367 60.543 633.391 62.0859 632.336 63.8047C631.281 65.4844 630.266 67.1445 629.289 68.7852L627.18 67.1445L639.719 47.5156L641.418 48.3945C641.34 48.6289 641.203 49 641.008 49.5078C640.852 50.0156 640.773 50.5625 640.773 51.1484C640.773 51.5781 640.832 52.0078 640.949 52.4375C641.105 52.8281 641.398 53.1992 641.828 53.5508C643.391 54.957 644.621 56.0508 645.52 56.832C646.418 57.5742 647.062 58.1797 647.453 58.6484C647.883 59.0781 648.137 59.4492 648.215 59.7617C648.332 60.0352 648.391 60.4062 648.391 60.875C648.391 61.3438 648.312 61.9102 648.156 62.5742C648 63.2383 647.727 64.0391 647.336 64.9766C646.984 65.9141 646.477 67.0273 645.812 68.3164C645.188 69.5664 644.387 71.0312 643.41 72.7109C642.824 73.7266 642.238 74.7617 641.652 75.8164C641.105 76.832 640.598 77.8672 640.129 78.9219C639.699 79.9766 639.348 81.0312 639.074 82.0859C638.801 83.1406 638.664 84.1562 638.664 85.1328C638.664 85.875 638.762 86.4805 638.957 86.9492C639.191 87.3789 639.484 87.7109 639.836 87.9453C640.188 88.1797 640.559 88.3359 640.949 88.4141C641.379 88.4922 641.789 88.5312 642.18 88.5312C643.469 88.5312 644.738 88.1602 645.988 87.418C647.277 86.6367 648.527 85.6406 649.738 84.4297C650.988 83.2188 652.18 81.8516 653.312 80.3281C654.484 78.7656 655.598 77.1836 656.652 75.582C657.707 73.9805 658.684 72.457 659.582 71.0117C660.48 69.5273 661.281 68.2383 661.984 67.1445L664.152 68.7852Z" fill="url(#paint0_linear_1_7)"/>
<defs>
<linearGradient id="paint0_linear_1_7" x1="662" y1="-14.4425" x2="-9.10832" y2="164.404" gradientUnits="userSpaceOnUse">
<stop stop-color="#FF5FEF"/>
<stop offset="0.0001" stop-color="#BA00A7"/>
<stop offset="0.5" stop-color="#FF002E" stop-opacity="0.5"/>
<stop offset="1" stop-color="#1400FF"/>
</linearGradient>
</defs>
</svg>
